Coordinates
version=1
nRows=9
nColumns=36
inDegrees=yes

Units are S.I. units (second, meters, Newtons, ...)
If the header above contains a line with 'inDegrees', this indicates whether rotational values are in degrees (yes) or radians (no).

endheader
time	pelvis_tilt	pelvis_list	pelvis_rotation	pelvis_tx	pelvis_ty	pelvis_tz	hip_flexion_r	hip_adduction_r	hip_rotation_r	knee_angle_r	knee_angle_r_beta	ankle_angle_r	subtalar_angle_r	mtp_angle_r	hip_flexion_l	hip_adduction_l	hip_rotation_l	knee_angle_l	knee_angle_l_beta	ankle_angle_l	subtalar_angle_l	mtp_angle_l	lumbar_extension	lumbar_bending	lumbar_rotation	arm_flex_r	arm_add_r	arm_rot_r	elbow_flex_r	pro_sup_r	arm_flex_l	arm_add_l	arm_rot_l	elbow_flex_l	pro_sup_l
     29.95000000	     -5.80395592	      1.65633097	     -8.43302251	      0.58434324	      0.91640139	      0.74105285	     29.22436479	      1.01736741	      5.11646552	     69.10548433	      1.20611823	      4.06468323	    -15.28089014	     -7.49999987	     16.54630089	      0.45991095	    -12.18087033	     21.27369357	      0.37129600	     13.41956113	      2.59980571	     -7.49999987	      2.66983406	      0.69077956	      3.89451721	     -0.68311947	    -11.57401625	      1.45377745	     23.00723478	     68.84544205	      0.17713843	     -9.25034831	     12.39149026	     18.92204036	     70.04709422
     29.96666670	     -5.84736355	      1.03486348	     -8.06487411	      0.58469722	      0.91774824	      0.74045741	     30.78451105	      1.66464150	      4.37683396	     67.77416259	      1.18288228	      6.84308750	    -14.52630302	     -7.49999987	     15.63025165	      0.20219073	    -11.63070573	     21.24408877	      0.37077930	     14.58171151	      2.93995850	     -7.49999987	      2.34455263	      1.47274127	      3.37011688	     -0.75090339	    -11.64506613	      1.66471821	     22.71646924	     68.78576521	      0.75086102	     -9.45050774	     11.90439161	     19.36830953	     70.01139773
     29.98333330	     -5.80070677	      0.52763453	     -7.72281486	      0.58437809	      0.91922132	      0.73981127	     31.80956408	      2.15773769	      3.80242654	     65.22846128	      1.13845142	      8.41447716	    -13.82479939	     -7.49999987	     14.66498940	      0.00837424	    -10.98879274	     21.40888910	      0.37365560	     15.66261119	      2.97419340	     -7.49999987	      2.02595620	      2.12259448	      2.92855564	     -0.89406496	    -11.63334681	      1.70171399	     22.48072374	     68.50898318	      1.23443252	     -9.71572400	     11.17219748	     19.86535487	     69.72066502
     30.00000000	     -5.67417453	      0.08078412	     -7.34200888	      0.58289126	      0.92134531	      0.73866491	     32.29868892	      2.48012682	      3.11654957	     61.68509626	      1.07660803	      9.00992642	    -12.86497439	     -7.49999987	     13.74071717	     -0.21111462	    -10.33835316	     21.82048527	      0.38083931	     16.66529952	      3.04727838	     -7.49999987	      1.67785481	      2.71987917	      2.37029030	     -0.97320875	    -11.58354947	      1.80716880	     22.23958032	     68.29683201	      1.73640477	     -9.95088924	     10.43570216	     20.36206431	     69.44903215
     30.01666670	     -5.53776072	     -0.20880981	     -7.02339914	      0.58064265	      0.92328540	      0.73706747	     32.56255733	      2.56268641	      2.38130761	     57.74623841	      1.00786199	      8.90346747	    -11.89561992	     -7.49999987	     13.00544246	     -0.33475318	     -9.71527850	     22.44776589	      0.39178742	     17.49306485	      2.84758884	     -7.49999987	      1.30807841	      3.14087973	      1.80949523	     -0.98798257	    -11.47218537	      1.92870200	     21.99636828	     68.07522383	      2.22034405	    -10.14547556	      9.62820928	     20.81356340	     69.18417423
     30.03333330	     -5.28823263	     -0.36578412	     -6.81030791	      0.57891935	      0.92407694	      0.73573810	     32.58103118	      2.41280571	      1.61489666	     53.75732922	      0.93824239	      8.56026794	    -10.88729979	     -7.49999987	     12.35142253	     -0.36942421	     -9.27587838	     23.23586284	      0.40554231	     18.36243691	      2.81326476	     -7.49999987	      0.75618818	      3.39789392	      1.33553462	     -0.92766903	    -11.32250089	      1.89179176	     21.75394873	     67.83273318	      2.80587917	    -10.29615881	      8.88417364	     21.22744001	     68.92116602
     30.05000000	     -5.03363188	     -0.42415621	     -6.63671618	      0.57776763	      0.92426406	      0.73492480	     32.49184949	      2.01761447	      0.72958400	     49.83980020	      0.86986861	      8.29295531	     -9.70517379	     -7.49999987	     11.86565566	     -0.30026450	     -8.91210514	     24.07332112	      0.42015872	     19.20632934	      2.76122692	     -7.49999987	      0.23017207	      3.51988835	      0.82765532	     -0.86290781	    -11.10960453	      1.87460327	     21.58661202	     67.68211330	      3.41986993	    -10.43377150	      8.24552222	     21.73065819	     68.77841828
     30.06666670	     -4.75554318	     -0.45128134	     -6.46595092	      0.57609156	      0.92533505	      0.73416049	     32.30905140	      1.47545837	     -0.18660595	     45.95314283	      0.80203364	      8.17328598	     -8.33661773	     -7.49999987	     11.41387334	     -0.15789266	     -8.55438890	     24.78688889	      0.43261282	     20.20392466	      2.78807920	     -7.49999987	     -0.32566600	      3.59423865	      0.27466970	     -0.71519456	    -10.90764984	      1.87610514	     21.38016452	     67.63623545	      4.08987059	    -10.49435933	      7.74753496	     22.19590404	     68.75071450
     30.08333330	     -4.48451489	     -0.42875902	     -6.25489875	      0.57431284	      0.92614536	      0.73354996	     32.17588871	      0.86965389	     -1.10995422	     41.98829056	      0.73283392	      7.88206644	     -7.04636931	     -7.49999987	     10.90664352	      0.07753224	     -8.24964765	     25.26052021	      0.44087925	     21.51456277	      3.08902607	     -7.49999987	     -0.96809828	      3.58914643	     -0.20058202	     -0.58770967	    -10.69134098	      1.87500685	     21.23458876	     67.62954965	      4.73857631	    -10.51268592	      7.24237836	     22.84746035	     68.74902773
